# xmcd
#
# Track frame offsets:
#	150
#	17088
#	32842
#	48907
#	62374
#	78917
#	92805
#	106265
#	123518
#	139865
#	154173
#	174526
#	189163
#
# Disc length: 2783 seconds
#
# Revision: 1
# Processed by: cddbd v1.4PL0 Copyright (c) Steve Scherf et al.
# Submitted via: audiograbber 1.82.02
#
DISCID=9e0add0d
DTITLE=Elliot's Ramblers - 'til love comes around
DYEAR=1996
DGENRE=Bluegrass
TTITLE0=Without You
TTITLE1=Plains of San Augusrtin
TTITLE2='Til Love Comes Around
TTITLE3=You Got The Road
TTITLE4=Lost Letter
TTITLE5=Wingwalker
TTITLE6=New Mexico Waltz
TTITLE7=Ain't Got Time For You
TTITLE8=Waiting For You
TTITLE9=Olive Blossom Hornpipe
TTITLE10=If She Were Mine
TTITLE11=In The Book
TTITLE12=Young Bill
EXTD=
EXTT0=
EXTT1=
EXTT2=
EXTT3=
EXTT4=
EXTT5=
EXTT6=
EXTT7=
EXTT8=
EXTT9=
EXTT10=
EXTT11=
EXTT12=
PLAYORDER=
